<?xml version="1.0" encoding="UTF-8"?>
<svg version="1.1" xmlns="http://www.w3.org/2000/svg" width="512" height="512">
<path d="M0 0 C0.99411644 -0.00744736 0.99411644 -0.00744736 2.00831604 -0.01504517 C4.18581207 -0.02956391 6.36323513 -0.03645359 8.54077148 -0.04199219 C9.29132246 -0.04481956 10.04187344 -0.04764694 10.81516838 -0.05056 C14.79182151 -0.06551543 18.76843874 -0.0747663 22.74511719 -0.07910156 C26.81753615 -0.0845626 30.88961679 -0.10855062 34.96193027 -0.13707352 C38.12357993 -0.15586409 41.285151 -0.16091426 44.44685173 -0.16243744 C45.94610366 -0.16543063 47.44535535 -0.17334367 48.94455147 -0.18662262 C64.27170961 -0.31262736 77.48845058 1.38753269 89.16186523 12.04394531 C97.67709037 21.1097238 101.4160138 32.18498976 101.37402344 44.45385742 C101.38168983 45.63361397 101.38168983 45.63361397 101.38951111 46.83720398 C101.40330385 49.41270762 101.40245831 51.98794059 101.40014648 54.56347656 C101.40403881 56.36894325 101.40837458 58.17440904 101.41313171 59.97987366 C101.42057154 63.75476049 101.42031872 67.52955376 101.41503906 71.30444336 C101.4092445 76.12378838 101.426186 80.94274908 101.44938374 85.7620306 C101.46416797 89.4879833 101.46498646 93.2138444 101.46187401 96.93982124 C101.46238477 98.71589482 101.46757605 100.49197385 101.47768593 102.26801872 C101.53995214 114.7341898 101.4043398 124.68762286 92.34545898 134.21191406 C86.82122632 139.00598728 81.20202871 140.18851956 74.09936523 141.16113281 C74.09349899 142.15814209 74.08763275 143.15515137 74.08158875 144.18237305 C74.02426691 153.59836986 73.95145602 163.01413782 73.86365032 172.42990112 C73.81900635 177.27014487 73.77973712 182.11030559 73.75292969 186.95068359 C73.72683705 191.62575301 73.68639266 196.30050195 73.63617897 200.97537231 C73.61955049 202.75501506 73.60801126 204.53471319 73.60175133 206.31442261 C73.59206628 208.81574756 73.56395558 211.31626005 73.53173828 213.81738281 C73.53317337 214.54603043 73.53460846 215.27467804 73.53608704 216.02540588 C73.39428123 223.85804086 70.687715 231.51786069 65.09936523 237.16113281 C57.78698508 242.22354984 50.96572332 244.13617219 42.09936523 243.16113281 C37.97648681 241.78900766 34.2398525 239.85655187 30.53686523 237.59863281 C27.42122498 237.03941533 26.66148755 237.80429583 24.03686523 239.47363281 C23.38588867 239.94414062 22.73491211 240.41464844 22.06420898 240.89941406 C17.30304023 243.95678486 11.56364807 243.70991301 6.09936523 243.16113281 C-1.06924264 241.39294722 -6.44921514 238.07569315 -10.90063477 232.16113281 C-14.46225513 225.99729536 -15.02011005 219.71870213 -15.18188477 212.72753906 C-15.20029419 212.0131517 -15.21870361 211.29876434 -15.2376709 210.56272888 C-15.29609445 208.2831096 -15.34891495 206.00341333 -15.40063477 203.72363281 C-15.64514647 193.1719244 -16.03483702 182.6841479 -16.90063477 172.16113281 C-17.48546631 172.45834229 -18.07029785 172.75555176 -18.67285156 173.06176758 C-23.05589012 175.2892134 -26.67515984 176.31531786 -31.59082031 176.72192383 C-32.58429977 176.80595963 -33.57777924 176.88999542 -34.60136414 176.97657776 C-35.7395031 177.06793251 -35.7395031 177.06793251 -36.90063477 177.16113281 C-36.89175232 178.44184662 -36.88286987 179.72256042 -36.87371826 181.04208374 C-36.79248825 193.13559048 -36.73260007 205.22904156 -36.69338608 217.32275963 C-36.67254774 223.53967063 -36.64429825 229.75636067 -36.59887695 235.97314453 C-36.555286 241.97726222 -36.53146944 247.9811679 -36.52112579 253.98543167 C-36.51375824 256.2714738 -36.49937127 258.55750485 -36.47771454 260.84345627 C-36.44850509 264.05555682 -36.44468617 267.26679105 -36.4465332 270.47900391 C-36.4321521 271.41552795 -36.417771 272.352052 -36.4029541 273.31695557 C-36.46117986 282.72873289 -39.42713442 290.51127469 -45.90063477 297.40332031 C-53.40783017 304.00144127 -60.76166589 305.52981191 -70.51000977 305.44238281 C-78.53189953 304.7769726 -84.68324513 301.026916 -90.90063477 296.16113281 C-91.3015332 296.55945313 -91.70243164 296.95777344 -92.11547852 297.36816406 C-99.26034446 304.02698471 -106.29849515 305.76177556 -115.98657227 305.43066406 C-125.53840174 304.54718386 -131.51183916 300.26234807 -137.90063477 293.16113281 C-141.45762418 287.82564869 -142.99151431 282.55238072 -143.10595703 276.20898438 C-143.12590225 275.22826965 -143.14584747 274.24755493 -143.16639709 273.23712158 C-143.19146584 271.66036652 -143.19146584 271.66036652 -143.21704102 270.05175781 C-143.24821266 268.4288382 -143.24821266 268.4288382 -143.28001404 266.77313232 C-143.34536407 263.31919668 -143.40432706 259.86518544 -143.46313477 256.41113281 C-143.5063338 254.0686771 -143.54994854 251.72622901 -143.59399414 249.38378906 C-143.70103059 243.64298341 -143.80282402 237.90210266 -143.90063477 232.16113281 C-144.57610352 232.51046875 -145.25157227 232.85980469 -145.94750977 233.21972656 C-146.83954102 233.67476562 -147.73157227 234.12980469 -148.65063477 234.59863281 C-149.53235352 235.05109375 -150.41407227 235.50355469 -151.32250977 235.96972656 C-155.54695202 237.92193094 -159.0004543 238.2789921 -163.65063477 238.22363281 C-164.63547852 238.21460938 -165.62032227 238.20558594 -166.63500977 238.19628906 C-167.75649414 238.17888672 -167.75649414 238.17888672 -168.90063477 238.16113281 C-168.89694759 238.7745947 -168.89326042 239.38805658 -168.88946152 240.02010822 C-168.8009015 254.98687477 -168.734824 269.95356024 -168.69338608 284.92052174 C-168.67281138 292.15861773 -168.6447891 299.3965382 -168.59887695 306.63452148 C-168.5588522 312.9474062 -168.53316499 319.26016371 -168.52428079 325.57317179 C-168.51909214 328.91215088 -168.50486759 332.25047971 -168.47771454 335.58939552 C-168.44852899 339.32812376 -168.44468527 343.06610717 -168.4465332 346.80493164 C-168.42496155 348.44276863 -168.42496155 348.44276863 -168.4029541 350.11369324 C-168.46186249 361.18296723 -171.4993117 369.97585755 -179.30688477 377.92285156 C-187.77179828 385.22766398 -195.99733683 387.23026335 -206.90063477 386.61425781 C-215.71273237 385.79587351 -221.60340496 382.18457002 -227.90063477 376.16113281 C-231.72837963 377.96242451 -235.04019342 380.28802939 -238.48657227 382.72363281 C-246.58205545 387.54424416 -257.69004487 387.67088947 -266.72875977 385.47363281 C-268.95992932 384.53747775 -270.88053252 383.49003918 -272.90063477 382.16113281 C-273.60575195 381.71382813 -274.31086914 381.26652344 -275.03735352 380.80566406 C-282.67102319 375.54252397 -286.79628623 369.16267702 -288.90063477 360.16113281 C-289.29633443 356.08160412 -289.28106763 352.03615835 -289.24121094 347.94018555 C-289.24164902 346.7489357 -289.2420871 345.55768585 -289.24253845 344.33033752 C-289.24081688 341.09114551 -289.22585887 337.85235151 -289.20481658 334.6132381 C-289.18595571 331.21801177 -289.18429198 327.82277613 -289.18074036 324.42750549 C-289.17144734 318.01035768 -289.14687114 311.59336473 -289.11669189 305.17628485 C-289.08306197 297.86547538 -289.06664036 290.55465818 -289.05160558 283.24379051 C-289.0203188 268.21615193 -288.96761226 253.18865792 -288.90063477 238.16113281 C-289.91601318 238.17781006 -290.9313916 238.1944873 -291.97753906 238.21166992 C-293.33080672 238.22516154 -294.68407852 238.2382419 -296.03735352 238.25097656 C-296.70408081 238.26302124 -297.37080811 238.27506592 -298.05773926 238.28747559 C-308.46324122 238.36073134 -315.37578754 234.67120626 -322.74047852 227.51660156 C-331.20444906 218.28735339 -333.35914081 207.99176726 -333.3046875 195.72314453 C-333.31155075 194.62572433 -333.318414 193.52830414 -333.32548523 192.39762878 C-333.34367879 188.79522494 -333.33992457 185.19325995 -333.33422852 181.59082031 C-333.33879536 179.06511292 -333.34410243 176.53940676 -333.35011292 174.01370239 C-333.35903061 168.72654285 -333.35687466 163.43949536 -333.34667969 158.15234375 C-333.33523197 152.08224024 -333.34922792 146.01258031 -333.37607616 139.94253528 C-333.40110624 134.05855261 -333.40337595 128.17473932 -333.3969593 122.29071426 C-333.39680706 119.80869944 -333.4027707 117.32667569 -333.41525078 114.84469223 C-333.49626989 96.08436181 -332.89491226 80.12300817 -321.90063477 64.16113281 C-321.17875977 63.10925781 -320.45688477 62.05738281 -319.71313477 60.97363281 C-307.7922726 49.05277065 -293.95656406 41.96368278 -277.05395508 41.91229248 C-276.09513428 41.91948303 -275.13631348 41.92667358 -274.1484375 41.93408203 C-273.11324478 41.93378998 -272.07805206 41.93349792 -271.01148987 41.93319702 C-267.61898159 41.93458083 -264.22669802 41.95009723 -260.83422852 41.96582031 C-258.47054667 41.96955381 -256.10686327 41.97239919 -253.74317932 41.97439575 C-247.54376906 41.98200563 -241.34445357 42.00163135 -235.14508057 42.02380371 C-228.81035646 42.04431923 -222.47561694 42.05340965 -216.14086914 42.06347656 C-203.7274162 42.08487978 -191.31403339 42.11898368 -178.90063477 42.16113281 C-178.68914795 40.76000244 -178.68914795 40.76000244 -178.47338867 39.33056641 C-176.4714946 28.25273652 -168.09039276 19.19581481 -159.21313477 12.91113281 C-146.52639093 4.22600691 -133.33010493 4.56474153 -118.52954102 4.62988281 C-116.35822883 4.6271828 -114.18691783 4.62329616 -112.01560974 4.61828613 C-107.48099168 4.61241382 -102.94669039 4.62087995 -98.41210938 4.63964844 C-92.6313453 4.66242256 -86.8513249 4.64930966 -81.07058811 4.62535858 C-76.59126801 4.61082753 -72.11212096 4.61554021 -67.63279533 4.62586975 C-65.50277554 4.62851759 -63.37273948 4.62533657 -61.24273872 4.61595154 C-41.05676265 4.54651461 -41.05676265 4.54651461 -31.31944275 8.50622559 C-28.92538796 9.41162321 -28.92538796 9.41162321 -26.79103088 8.33776855 C-25.11151291 7.11639218 -25.11151291 7.11639218 -23.57641602 5.61035156 C-17.55653252 0.40434509 -7.53003561 0.0431694 0 0 Z M-15.90063477 18.16113281 C-14.45741318 21.1712807 -12.80152237 23.96127533 -11.02563477 26.78613281 C-6.31039807 34.59106006 -2.80990449 42.58554217 -2.74914551 51.81439209 C-2.74080185 52.72122742 -2.73245819 53.62806274 -2.72386169 54.56237793 C-2.71758507 56.03777039 -2.71758507 56.03777039 -2.71118164 57.54296875 C-2.70288834 58.58974792 -2.69459503 59.6365271 -2.68605042 60.71502686 C-2.6686504 62.99298341 -2.65348345 65.27095786 -2.64027405 67.54894257 C-2.61907766 71.19838295 -2.59204669 74.84774072 -2.56359863 78.49713135 C-2.50391324 86.3017648 -2.45212421 94.10644174 -2.40063477 101.91113281 C-2.1561812 143.07844962 -2.1561812 143.07844962 -1.43188477 184.23925781 C-1.41307755 185.04298576 -1.39427032 185.84671371 -1.37489319 186.67479706 C-1.26880462 191.09877089 -1.14023562 195.52116617 -0.97940063 199.9434967 C-0.92434034 201.4937075 -0.87418112 203.04409664 -0.82772827 204.59458923 C-0.75123604 207.05340752 -0.6553187 209.51080351 -0.55493164 211.96875 C-0.53447029 212.71647297 -0.51400894 213.46419594 -0.49292755 214.23457718 C-0.23772355 219.71361618 1.08072382 222.99296241 4.78686523 226.97363281 C8.18789238 228.72010621 11.40493221 228.82950936 15.09936523 228.16113281 C18.66288653 225.99203289 20.57040158 224.00590525 22.09936523 220.16113281 C22.40530867 217.39465727 22.40530867 217.39465727 22.37060547 214.33862305 C22.38079208 213.16738388 22.3909787 211.99614471 22.401474 210.78941345 C22.40468407 208.89866844 22.40468407 208.89866844 22.40795898 206.96972656 C22.42667461 204.98866229 22.44540695 203.007598 22.46514225 201.02654362 C22.51053016 196.1428743 22.53417931 191.25906805 22.55566406 186.37524414 C22.56845679 183.63220188 22.58912144 180.88941991 22.61793518 178.14649963 C22.64427372 175.56240082 22.65807288 172.97813867 22.65830994 170.39390564 C22.67164871 169.22581863 22.68498749 168.05773163 22.69873047 166.85424805 C22.70633644 165.31014503 22.70633644 165.31014503 22.71409607 163.73484802 C23.09936523 161.16113281 23.09936523 161.16113281 24.43690491 159.32484436 C27.00092904 157.53004394 29.05866675 157.84439339 32.09936523 158.16113281 C35.09936523 160.16113281 35.09936523 160.16113281 36.09936523 163.16113281 C36.19111651 165.05178904 36.22448745 166.94549789 36.2253418 168.83837891 C36.23105194 170.58566788 36.23105194 170.58566788 36.23687744 172.36825562 C36.23790466 173.62763947 36.23893188 174.88702332 36.23999023 176.18457031 C36.25362297 178.16080963 36.2672853 180.13704927 36.28269577 182.11327553 C36.32067098 186.98928751 36.35198068 191.86503405 36.34985352 196.74121094 C36.34921846 199.47663906 36.36166523 202.21139245 36.38885498 204.94668579 C36.41421257 207.52304444 36.42057671 210.09967436 36.40606689 212.67611694 C36.23954771 219.65915301 36.23954771 219.65915301 39.57885742 225.42919922 C40.82650879 226.28650635 40.82650879 226.28650635 42.09936523 227.16113281 C42.42936523 227.49113281 42.75936523 227.82113281 43.09936523 228.16113281 C48.2213166 228.76778461 48.2213166 228.76778461 52.92749023 227.11425781 C55.08824148 225.33111358 56.83809617 223.68367094 58.09936523 221.16113281 C58.20130329 219.06712008 58.23723471 216.96980268 58.24412537 214.87332153 C58.24765221 214.22106657 58.25117906 213.5688116 58.25481278 212.89679134 C58.26552621 210.70120668 58.26918532 208.50566536 58.27294922 206.31005859 C58.27925245 204.73991715 58.286018 203.1697775 58.29321289 201.59963989 C58.30789865 198.21329241 58.31961694 194.82695191 58.32916069 191.44058609 C58.34458913 186.08770745 58.36853793 180.73488836 58.39405823 175.38204956 C58.46532542 160.15887205 58.5250636 144.93566041 58.57617188 129.71240234 C58.60446065 121.30870078 58.63983395 112.90505844 58.68282562 104.50141895 C58.70962514 99.1787105 58.72751369 93.85606906 58.73886287 88.53330636 C58.74798055 85.22256377 58.76533847 81.91190266 58.78504181 78.60120773 C58.79252336 77.06451954 58.79659873 75.52781047 58.79703712 73.99110413 C58.79811812 71.89487778 58.81135169 69.79906683 58.82762146 67.70291138 C58.8318534 66.52930117 58.83608534 65.35569096 58.84044552 64.1465168 C59.09422893 61.2203552 59.38685921 59.53297263 61.09936523 57.16113281 C64.47436523 56.16113281 64.47436523 56.16113281 68.09936523 56.16113281 C71.04785745 58.30340887 71.98948819 59.52881324 72.61834717 63.14776611 C72.62722961 64.31136658 72.63611206 65.47496704 72.64526367 66.67382812 C72.65560135 67.31814789 72.66593903 67.96246765 72.67658997 68.62631226 C72.70599417 70.74754992 72.70751648 72.86783247 72.70874023 74.98925781 C72.72372368 76.46329567 72.74045118 77.93731674 72.7588501 79.41131592 C72.80251828 83.28451309 72.82252123 87.15748382 72.83758545 91.03088379 C72.85715869 94.98589465 72.89912836 98.94066102 72.93920898 102.89550781 C73.01450513 110.65065041 73.06479984 118.40569037 73.09936523 126.16113281 C77.97416365 125.49455126 80.51827654 124.64274682 84.09936523 121.16113281 C86.59099563 117.49285213 86.39521117 113.69143075 86.38989258 109.41430664 C86.3966098 108.63813995 86.40332703 107.86197327 86.4102478 107.06228638 C86.42923616 104.49751365 86.43315297 101.93300271 86.43530273 99.36816406 C86.44173212 97.57940057 86.44846058 95.79063813 86.45547485 94.00187683 C86.46745116 90.25016851 86.47115552 86.49855226 86.4699707 82.74682617 C86.46976796 77.9564158 86.49702205 73.16660167 86.53151512 68.37633228 C86.55383939 64.67953319 86.55780649 60.98287604 86.55675125 57.28601646 C86.55910074 55.52109417 86.5678873 53.75616757 86.58341599 51.99131203 C86.86252501 39.01255537 86.86252501 39.01255537 82.09936523 27.16113281 C81.10936523 25.58332031 81.10936523 25.58332031 80.09936523 23.97363281 C74.75736111 18.19929562 66.99456899 14.9672315 59.24300003 14.49141598 C55.57260187 14.38723589 51.91098622 14.41476884 48.23999023 14.46972656 C46.63963151 14.47331332 45.03926637 14.47465905 43.43890381 14.47389221 C40.10705236 14.47855122 36.77618427 14.5031459 33.44458008 14.54370117 C29.19236225 14.59483434 24.94121394 14.60613732 20.68872452 14.60386562 C17.39251664 14.60468422 14.0965385 14.6211807 10.80040741 14.64286995 C9.23286419 14.65235389 7.66529523 14.65831419 6.09772491 14.66055107 C-5.23827746 14.66286795 -5.23827746 14.66286795 -15.90063477 18.16113281 Z M-159.90063477 34.16113281 C-163.47827465 39.81359213 -163.47827465 39.81359213 -164.90063477 46.16113281 C-164.16200195 46.47824219 -163.42336914 46.79535156 -162.66235352 47.12207031 C-148.14022995 53.8018781 -138.1355627 64.08558724 -132.52563477 79.09863281 C-131.95703163 80.77724816 -131.41217273 82.46425688 -130.90063477 84.16113281 C-130.7234963 84.7148267 -130.54635784 85.26852058 -130.36385155 85.83899307 C-129.70768262 89.12841608 -129.75760944 92.38558799 -129.76260376 95.7255249 C-129.75978248 96.49100592 -129.7569612 97.25648694 -129.75405443 98.04516435 C-129.74571638 100.61215106 -129.74437085 103.1790946 -129.74291992 105.74609375 C-129.73825109 107.58589804 -129.73310741 109.42570118 -129.7275238 111.26550293 C-129.71624539 115.22912233 -129.70780994 119.19273422 -129.70140457 123.15636444 C-129.69072183 129.42623187 -129.67047603 135.6960454 -129.64828491 141.96588135 C-129.58637053 159.79558848 -129.53235676 177.62529248 -129.49926758 195.45507812 C-129.4809148 205.3010745 -129.45197078 215.14698061 -129.41126287 224.99291062 C-129.39020455 230.20220335 -129.37473724 235.41138238 -129.3724556 240.62071991 C-129.3703061 245.52257407 -129.35440576 250.42419149 -129.32806587 255.32597351 C-129.32088305 257.12221724 -129.31876697 258.91848969 -129.32216835 260.71474457 C-129.32607886 263.17304338 -129.31155815 265.63059191 -129.29263306 268.08880615 C-129.29816275 268.79427322 -129.30369245 269.49974029 -129.30938971 270.22658515 C-129.2369933 275.70014582 -128.26492149 281.46521417 -124.55499804 285.69551826 C-120.13331457 289.57149287 -116.81892823 291.22203102 -110.96313477 291.03613281 C-106.80755703 290.33962355 -104.09734743 288.99458268 -100.90063477 286.16113281 C-95.556275 278.45155753 -96.29588377 269.98018139 -96.29125977 260.97363281 C-96.27626282 259.30353198 -96.25953251 257.6334459 -96.2411499 255.96337891 C-96.19763378 251.59046715 -96.17751244 247.21775541 -96.16241455 242.84466553 C-96.14278641 238.37321218 -96.10082297 233.90197305 -96.06079102 229.43066406 C-95.98565958 220.67420996 -95.93526516 211.91784036 -95.90063477 203.16113281 C-94.46653108 202.91159276 -93.02803405 202.68720639 -91.58813477 202.47363281 C-90.38737305 202.28220703 -90.38737305 202.28220703 -89.16235352 202.08691406 C-86.90063477 202.16113281 -86.90063477 202.16113281 -85.13171387 203.20744324 C-83.27125083 206.15994827 -83.52147031 208.63951167 -83.51586914 212.10766602 C-83.51049637 212.81047699 -83.5051236 213.51328796 -83.49958801 214.23739624 C-83.48980776 215.76298079 -83.48686663 217.28862098 -83.48994446 218.81423378 C-83.49442149 221.23174686 -83.48042492 223.64852744 -83.46154785 226.06596375 C-83.42474325 231.20184139 -83.41105916 236.33764272 -83.40063477 241.47363281 C-83.38854717 247.41572646 -83.3669241 253.35746431 -83.32063293 259.29939842 C-83.30709033 261.67584178 -83.3112293 264.05183231 -83.31604004 266.42829895 C-83.30669458 267.89434376 -83.29652455 269.36038362 -83.28540039 270.82641602 C-83.28334595 272.10088089 -83.2812915 273.37534576 -83.2791748 274.68843079 C-82.73312876 279.69782213 -80.81994848 282.97143271 -77.77563477 286.91113281 C-73.98074162 289.88104919 -70.70812378 290.96851222 -65.90063477 291.16113281 C-61.24468945 290.42817541 -58.02681326 288.67146131 -54.96313477 285.09863281 C-51.83209055 280.63926681 -51.75119087 277.67519466 -51.74914551 272.36149597 C-51.7449131 271.54660448 -51.74068069 270.73171299 -51.73632002 269.89212781 C-51.72324523 267.14610102 -51.71725804 264.40010329 -51.71118164 261.65405273 C-51.70324296 259.6914502 -51.69485531 257.72884945 -51.68605042 255.76625061 C-51.6679638 251.53194376 -51.65295864 247.29764089 -51.64027405 243.06331444 C-51.62008926 236.37017184 -51.59243095 229.67707317 -51.56359863 222.98396301 C-51.50344228 208.77220684 -51.45164957 194.56042429 -51.40063477 180.34863281 C-51.34557462 165.01801181 -51.28907065 149.68740413 -51.22308588 134.35682565 C-51.19472384 127.70136335 -51.17113177 121.04590618 -51.15116119 114.39041364 C-51.1377754 110.25038544 -51.12036244 106.1103813 -51.10185051 101.97037315 C-51.09409343 100.04869699 -51.0880243 98.12701316 -51.0837574 96.20532608 C-51.07770963 93.58408324 -51.06566043 90.96293387 -51.05212402 88.34172058 C-51.05182804 87.57945937 -51.05153205 86.81719816 -51.05122709 86.03183812 C-51.0254274 82.28542382 -50.79923987 78.80425532 -49.90063477 75.16113281 C-45.52918694 74.14451704 -42.89595401 73.99224522 -38.90063477 76.16113281 C-37.3326282 79.29714595 -37.7207884 82.65419057 -37.6953125 86.09912109 C-37.6854129 86.91871307 -37.67551331 87.73830505 -37.66531372 88.58273315 C-37.63365943 91.29894089 -37.60892579 94.01516613 -37.58422852 96.73144531 C-37.56366238 98.61189231 -37.542666 100.49233464 -37.52125549 102.37277222 C-37.46599967 107.32770012 -37.41660589 112.28266998 -37.3684082 117.2376709 C-37.31821879 122.29162338 -37.26251938 127.34551475 -37.20727539 132.39941406 C-37.09965089 142.3199348 -36.99821546 152.24050855 -36.90063477 162.16113281 C-31.58259886 162.26787025 -28.41542788 162.13897508 -23.90063477 159.16113281 C-19.90540853 155.12856802 -16.78692326 151.90851711 -16.75346375 146.07763672 C-16.74630844 145.22268112 -16.73915314 144.36772552 -16.73178101 143.48686218 C-16.7290921 142.54663712 -16.7264032 141.60641205 -16.72363281 140.63769531 C-16.71377602 139.15442497 -16.71377602 139.15442497 -16.70372009 137.64118958 C-16.68395044 134.35616992 -16.67231334 131.07119618 -16.66235352 127.78613281 C-16.65827799 126.66409454 -16.65420246 125.54205627 -16.65000343 124.38601685 C-16.62912226 118.44175398 -16.61483214 112.4975143 -16.60546875 106.55322266 C-16.59442921 100.42445678 -16.56006326 94.29605647 -16.52029705 88.16741943 C-16.4940898 83.44719794 -16.485773 78.72706275 -16.48218727 74.0067749 C-16.47732817 71.7486526 -16.46573359 69.49053397 -16.44714928 67.23248291 C-16.4226821 64.06127469 -16.42373755 60.89100118 -16.43066406 57.71972656 C-16.417854 56.79569534 -16.40504395 55.87166412 -16.3918457 54.91963196 C-16.47513961 44.39349223 -20.61183024 35.68041337 -27.90063477 28.16113281 C-39.5000863 18.28650678 -52.51800916 18.69791147 -66.95922852 18.72753906 C-68.91398804 18.72297037 -70.86874596 18.71766277 -72.82350159 18.71165466 C-76.90762891 18.70275233 -80.99156038 18.70511395 -85.07568359 18.71508789 C-90.28498945 18.72657602 -95.49361726 18.70635353 -100.70283413 18.67717075 C-104.73598964 18.65874252 -108.76898462 18.65911434 -112.80217171 18.66480827 C-114.72173069 18.66496067 -116.64130113 18.65898487 -118.56081963 18.6465168 C-135.02494157 18.55462112 -148.87489281 20.54562356 -159.90063477 34.16113281 Z M-308.15063477 71.02832031 C-315.88111939 80.44984844 -318.35643824 90.75131489 -318.3046875 102.7043457 C-318.31155075 103.82422379 -318.318414 104.94410187 -318.32548523 106.09791565 C-318.34369377 109.77667134 -318.33992481 113.45499826 -318.33422852 117.13378906 C-318.33879238 119.70251096 -318.34409856 122.27123165 -318.35011292 124.83995056 C-318.35903179 130.21375085 -318.35686946 135.58738804 -318.34667969 140.96118164 C-318.3351903 147.15695547 -318.34929762 153.35229684 -318.37607616 159.54801375 C-318.40096205 165.53187951 -318.403402 171.51552382 -318.3969593 177.49944878 C-318.39680616 180.03552406 -318.40284487 182.57160772 -318.41525078 185.10765266 C-318.43016114 188.65453248 -318.41948277 192.20046391 -318.40234375 195.74731445 C-318.41201172 196.78909851 -318.42167969 197.83088257 -318.43164062 198.90423584 C-318.35650622 206.34600475 -316.84447028 211.67708831 -312.00610352 217.40332031 C-306.13283049 222.4033776 -301.45624133 224.25360455 -293.67407227 224.19628906 C-292.77865723 224.19121338 -291.88324219 224.1861377 -290.96069336 224.1809082 C-289.94096436 224.17111938 -289.94096436 224.17111938 -288.90063477 224.16113281 C-288.89698914 222.92751511 -288.89334351 221.6938974 -288.8895874 220.42289734 C-288.85268978 208.81263443 -288.79497462 197.20263803 -288.71673203 185.59257793 C-288.67717693 179.62331204 -288.64502788 173.65419545 -288.62963867 167.68481445 C-288.61452501 161.9269399 -288.58017378 156.16947558 -288.53232574 150.41178322 C-288.51745723 148.21213148 -288.50959064 146.01242118 -288.50875092 143.81271935 C-288.50639596 140.73789805 -288.47943497 137.66422417 -288.4465332 134.58959961 C-288.45156357 133.67466232 -288.45659393 132.75972504 -288.46177673 131.81706238 C-288.35987766 125.68585825 -288.35987766 125.68585825 -286.06182861 123.06013489 C-283.00861741 121.79007611 -281.03725499 122.27469666 -277.90063477 123.16113281 C-275.2435817 125.81818587 -275.65564907 127.78732105 -275.63028532 131.40181506 C-275.63426642 132.28545052 -275.63824751 133.16908599 -275.64234924 134.07949829 C-275.63867354 135.01477966 -275.63499783 135.95006102 -275.63121074 136.91368425 C-275.62118081 140.06734789 -275.62539149 143.22083693 -275.62939453 146.37451172 C-275.62501023 148.62780954 -275.61970917 150.88110573 -275.61355591 153.13439941 C-275.60202973 157.99732073 -275.59659456 162.86019833 -275.59567451 167.72313309 C-275.59373852 175.4126611 -275.57571016 183.10209841 -275.55491638 190.79159546 C-275.52711661 201.57411266 -275.50414638 212.35662099 -275.48730469 223.13916016 C-275.48623201 223.82377207 -275.48515933 224.50838398 -275.48405414 225.2137417 C-275.4722433 232.84553633 -275.46203781 240.47733176 -275.45361328 248.10913086 C-275.45053964 250.8730469 -275.4474508 253.63696292 -275.44433594 256.40087891 C-275.4435706 257.08283922 -275.44280526 257.76479953 -275.44201673 258.4674253 C-275.42892326 269.84904723 -275.40410895 281.23060289 -275.37059253 292.61218584 C-275.3488033 300.25535504 -275.34075965 307.89837755 -275.34298527 315.54157567 C-275.34131792 320.30126913 -275.32726488 325.060867 -275.30977249 329.82052612 C-275.30417508 332.02636393 -275.30368582 334.23222157 -275.3087101 336.43806076 C-275.3148557 339.45254741 -275.3026115 342.46643123 -275.28590393 345.48086548 C-275.29522165 346.78624218 -275.29522165 346.78624218 -275.30472761 348.11799014 C-275.23627914 354.90924546 -274.0499732 360.45910735 -269.71313477 365.91113281 C-265.24694898 369.48408144 -261.16667166 371.83152745 -255.46313477 372.66113281 C-249.73678293 371.85743431 -244.94564911 370.48792367 -241.02954102 366.03222656 C-236.61698204 359.6091491 -235.75373163 354.8643228 -235.72705078 347.11962891 C-235.71702026 345.90925209 -235.71702026 345.90925209 -235.70678711 344.67442322 C-235.69275894 342.92565786 -235.68085781 341.17687444 -235.67083931 339.42808151 C-235.65441369 336.66313803 -235.63117815 333.89832963 -235.60594177 331.13345337 C-235.53518742 323.27360764 -235.47489731 315.41370888 -235.42382812 307.55371094 C-235.39210428 302.74445806 -235.35085422 297.93536425 -235.30363274 293.12623978 C-235.28758261 291.29138663 -235.27527502 289.4564969 -235.26672554 287.62159348 C-235.25462235 285.06217952 -235.230497 282.50314277 -235.20361328 279.94384766 C-235.20302414 279.18121109 -235.202435 278.41857452 -235.201828 277.63282776 C-235.12853926 272.38903731 -235.12853926 272.38903731 -232.90063477 270.16113281 C-231.02563477 269.89550781 -231.02563477 269.89550781 -228.90063477 269.91113281 C-228.19938477 269.90597656 -227.49813477 269.90082031 -226.77563477 269.89550781 C-224.90063477 270.16113281 -224.90063477 270.16113281 -222.90063477 272.16113281 C-222.70401928 274.82919275 -222.63106151 277.39484296 -222.64526367 280.06396484 C-222.64164322 280.88046005 -222.63802277 281.69695526 -222.6342926 282.53819275 C-222.6273881 284.31535854 -222.62489513 286.09254558 -222.62623978 287.86972427 C-222.62720332 290.68664153 -222.6142812 293.50317535 -222.59725952 296.32003784 C-222.55094905 304.33051524 -222.52640013 312.34095594 -222.51977539 320.3515625 C-222.51474776 325.24939231 -222.49042774 330.14682591 -222.4544487 335.04452133 C-222.44467329 336.90791312 -222.44230639 338.77135959 -222.44762039 340.63476944 C-222.45472702 343.25091765 -222.43733338 345.86589576 -222.41479492 348.48193359 C-222.4270536 349.62629631 -222.4270536 349.62629631 -222.43955994 350.79377747 C-222.34186405 357.20470714 -220.41659824 362.57145947 -215.90063477 367.21972656 C-215.24063477 367.67476563 -214.58063477 368.12980469 -213.90063477 368.59863281 C-212.91063477 369.30826172 -212.91063477 369.30826172 -211.90063477 370.03222656 C-207.71512884 372.39474846 -203.6499729 372.55691099 -198.90063477 372.16113281 C-192.73296111 370.18079659 -188.48501885 366.50670215 -184.90063477 361.16113281 C-183.5631928 357.14880692 -183.75054843 353.28646855 -183.74914551 349.10232544 C-183.7449131 348.16407295 -183.74068069 347.22582046 -183.73632002 346.25913608 C-183.72325907 343.10162953 -183.71726122 339.94414825 -183.71118164 336.78662109 C-183.70324194 334.52830856 -183.6948542 332.26999756 -183.68605042 330.01168823 C-183.66797186 325.14169891 -183.65296387 320.27171302 -183.64027405 315.4017067 C-183.62008247 307.70453978 -183.59242563 300.00741097 -183.56359863 292.31027222 C-183.52389213 281.52114627 -183.48693404 270.73201613 -183.45288086 259.94287109 C-183.45071806 259.25803775 -183.44855525 258.57320441 -183.44632691 257.86761855 C-183.43100055 253.0071236 -183.41580466 248.14662825 -183.40063477 243.28613281 C-183.38331375 237.73746715 -183.36592769 232.1888017 -183.34838867 226.64013672 C-183.3462298 225.95674292 -183.34407093 225.27334913 -183.34184664 224.56924643 C-183.30573276 213.17519898 -183.26573743 201.78116908 -183.22308588 190.38714397 C-183.19471541 182.73231472 -183.17112665 175.07748995 -183.15116119 167.42263436 C-183.13778239 162.66311777 -183.12036925 157.90362218 -183.10185051 153.14412308 C-183.09408883 150.93379751 -183.08802171 148.72346527 -183.0837574 146.51313019 C-183.07771661 143.5000201 -183.06567085 140.48699178 -183.05212402 137.47390747 C-183.05182804 136.59559993 -183.05153205 135.71729239 -183.05122709 134.81236947 C-183.02712782 130.79750058 -182.90264022 127.07891649 -181.90063477 123.16113281 C-175.54836204 121.9395419 -175.54836204 121.9395419 -172.52563477 122.97363281 C-170.90063477 124.16113281 -170.90063477 124.16113281 -169.90063477 126.16113281 C-169.77756362 129.2421961 -169.71482402 132.3020724 -169.6953125 135.38427734 C-169.6854129 136.34041931 -169.67551331 137.29656128 -169.66531372 138.28167725 C-169.63364356 141.4524078 -169.6089195 144.62315335 -169.58422852 147.79394531 C-169.56366375 149.98827511 -169.54266741 152.18260091 -169.52125549 154.37692261 C-169.4659855 160.1604285 -169.41659797 165.94397042 -169.3684082 171.72753906 C-169.31822912 177.6260093 -169.26252433 183.52442702 -169.20727539 189.42285156 C-169.09963356 201.00223381 -168.99820199 212.5816616 -168.90063477 224.16113281 C-167.15898337 224.05304725 -165.41823225 223.9304008 -163.67797852 223.80175781 C-162.22379517 223.70169434 -162.22379517 223.70169434 -160.74023438 223.59960938 C-155.20326799 222.74461912 -151.46143616 219.7219342 -147.58813477 215.84863281 C-143.1128296 208.72129495 -142.46204464 202.4740582 -142.51245117 194.25390625 C-142.50719421 193.18936722 -142.50193726 192.12482819 -142.496521 191.0280304 C-142.48336905 187.52537147 -142.49204491 184.02317101 -142.50219727 180.52050781 C-142.50017456 178.07204095 -142.49726149 175.62357467 -142.49349976 173.17510986 C-142.48908238 168.04750829 -142.49548655 162.92006375 -142.50952148 157.79248047 C-142.52657653 151.24486596 -142.51679146 144.69762142 -142.49880409 138.1500206 C-142.4879196 133.09343726 -142.4914346 128.03694037 -142.49918747 122.98035431 C-142.50117847 120.5676087 -142.49876918 118.15485505 -142.49174881 115.74211884 C-142.48406155 112.3565164 -142.4958418 108.97149695 -142.51245117 105.5859375 C-142.50334213 104.11260704 -142.50334213 104.11260704 -142.49404907 102.60951233 C-142.61172381 89.548947 -146.08861878 78.56714648 -155.00610352 68.87207031 C-165.65994621 58.80277474 -177.5080854 55.84525904 -191.84155273 55.88647461 C-193.24860474 55.87880821 -193.24860474 55.87880821 -194.68408203 55.87098694 C-197.75372886 55.85720227 -200.82314836 55.85803928 -203.89282227 55.86035156 C-206.04696738 55.85645856 -208.20111174 55.85212265 -210.35525513 55.84736633 C-214.85885105 55.83992803 -219.36236855 55.84017805 -223.8659668 55.84545898 C-229.61088317 55.85125064 -235.35547682 55.83431804 -241.10033989 55.81111431 C-245.54613086 55.79631709 -249.99184517 55.7955134 -254.4376564 55.79862404 C-256.55455286 55.79811385 -258.67145394 55.79293342 -260.78832626 55.78281212 C-279.25969386 55.70532294 -294.7570223 56.82461032 -308.15063477 71.02832031 Z " fill="#56A4FF" transform="translate(371.900634765625,109.8388671875)"/>
<path d="M0 0 C10.82274824 8.51389528 17.02865139 22.07355856 18.8515625 35.5 C19.9875093 51.76838091 15.41829297 65.14624827 5.33203125 77.81640625 C-4.00535731 88.07353758 -17.08230381 93.83573943 -30.7421875 94.94140625 C-47.72860056 95.69731914 -61.30827712 89.9125769 -73.9296875 78.6328125 C-85.18226207 64.90394321 -88.90233653 51.21254309 -87.9296875 33.6328125 C-85.61037001 18.5375936 -77.15935026 5.75425467 -64.9921875 -3.2421875 C-44.52285689 -16.76087314 -19.35158622 -13.71063801 0 0 Z " fill="#89C8FE" transform="translate(175.9296875,49.3671875)"/>
<path d="M0 0 C11.38112659 7.06015649 18.41035161 16.75756091 22.43359375 29.453125 C25.51524819 43.11584469 22.93310316 56.79782468 15.5546875 68.6796875 C7.88604211 79.4863975 -2.79596915 85.26735166 -15.4453125 88.4296875 C-30.28523365 89.6663476 -43.25841668 86.9941808 -55.109375 77.55859375 C-65.20836758 68.26813078 -70.39314648 57.02392747 -71.36328125 43.5078125 C-71.65083469 30.08865186 -67.46384858 18.58347866 -58.4453125 8.6796875 C-43.24528459 -7.02595464 -19.1711916 -10.35121847 0 0 Z " fill="#57A4FF" transform="translate(304.4453125,21.3203125)"/>
<path d="M0 0 C9.29987457 6.75497646 15.19356532 15.17837478 17.5 26.4921875 C18.73187704 37.73147798 17.03966985 48.04309553 10.3125 57.3046875 C2.68213413 66.22833572 -5.91115653 71.47494963 -17.69921875 72.87109375 C-28.68437729 73.28187772 -39.08720112 70.75026745 -47.50390625 63.4609375 C-56.22705915 54.85727984 -60.57691403 45.87086412 -61 33.4921875 C-60.57812911 21.14906184 -56.26085327 12.04501451 -47.46875 3.5234375 C-34.14846289 -7.86637322 -14.95246399 -9.01820484 0 0 Z " fill="#57A4FF" transform="translate(421.5,32.5078125)"/>
<path d="M0 0 C10.82274824 8.51389528 17.02865139 22.07355856 18.8515625 35.5 C19.9875093 51.76838091 15.41829297 65.14624827 5.33203125 77.81640625 C-4.00535731 88.07353758 -17.08230381 93.83573943 -30.7421875 94.94140625 C-47.72860056 95.69731914 -61.30827712 89.9125769 -73.9296875 78.6328125 C-85.18226207 64.90394321 -88.90233653 51.21254309 -87.9296875 33.6328125 C-85.61037001 18.5375936 -77.15935026 5.75425467 -64.9921875 -3.2421875 C-44.52285689 -16.76087314 -19.35158622 -13.71063801 0 0 Z M-64.68359375 15.546875 C-72.72363628 25.66241723 -74.86603664 35.90389228 -73.9296875 48.6328125 C-71.74050995 59.25799273 -65.50107329 68.62688864 -56.4921875 74.6328125 C-46.00839971 80.6133043 -35.90383745 82.53642006 -23.8359375 79.9765625 C-13.45935751 76.59542969 -5.06337233 69.46760885 0.546875 60.19140625 C5.40600384 50.43242962 5.65151879 39.07378326 3.40625 28.5078125 C-0.58017449 17.41515304 -8.82555466 10.06328201 -18.9375 4.53515625 C-34.91002828 -2.19836057 -53.36933656 3.19946738 -64.68359375 15.546875 Z " fill="#57A4FF" transform="translate(175.9296875,49.3671875)"/>
<path d="M0 0 C7.95095587 5.55950558 13.64542719 13.02785175 15.51953125 22.76171875 C16.43802388 32.82981109 14.12989856 41.4904492 8.25390625 49.72265625 C2.10526547 56.95146365 -6.22484171 61.10091483 -15.625 61.95703125 C-25.22195312 62.41043061 -32.67722914 59.69179744 -39.91796875 53.38671875 C-46.75688954 46.76456249 -50.60255313 40.61492935 -50.96313477 30.79858398 C-51.0441917 20.68930052 -49.27998735 13.21735132 -42.39453125 5.390625 C-30.60529119 -5.88154312 -14.28326007 -8.38237834 0 0 Z " fill="#89C8FE" transform="translate(298.48046875,34.23828125)"/>
<path d="M0 0 C7.05677217 3.94040569 11.34002447 9.30567976 13.83984375 17.02734375 C14.96089295 24.70386162 13.79185149 31.36063845 9.65625 37.8984375 C5.16872412 43.80976762 -0.79716528 47.319365 -8.12109375 48.5078125 C-16.3161144 48.89754999 -22.74882458 46.78583564 -29.0078125 41.453125 C-34.18947792 35.99136956 -36.21815896 29.51074554 -36.66015625 22.08984375 C-36.42628406 15.55159077 -33.83531531 10.04563485 -29.515625 5.171875 C-21.25430757 -2.38079669 -10.38441504 -4.6082169 0 0 Z " fill="#89C8FE" transform="translate(411.16015625,42.97265625)"/>
</svg>
